<svg xmlns="http://www.w3.org/2000/svg" viewBox="0 0 1200 800" width="1200" height="800">
  <style>
    text { font-family: 'Comic Sans MS', 'Microsoft YaHei', 'PingFang SC', 'Segoe UI', sans-serif; }
    .t-title { font-size: 24px; font-weight: 700; fill: #2b2b2b; }
    .t-sub { font-size: 13px; fill: #6b6256; font-style: italic; }
    .t-col { font-size: 17px; font-weight: 700; fill: #2b2b2b; }
    .t-coltag { font-size: 12px; font-weight: 600; }
    .t-cell { font-size: 14px; font-weight: 700; fill: #2b2b2b; }
    .t-b { font-size: 11.5px; fill: #4a4438; }
    .t-row { font-size: 14px; font-weight: 700; fill: #5a4a2a; }
    .t-axis { font-size: 13px; font-weight: 600; fill: #2b2b2b; }
    .t-cap { font-size: 12px; fill: #6b6256; font-style: italic; }
  </style>
  <rect width="1200" height="800" fill="#fbf7f0"/>
  <defs><pattern id="dots2" x="0" y="0" width="28" height="28" patternUnits="userSpaceOnUse"><circle cx="2" cy="2" r="0.7" fill="#e2d9c8"/></pattern></defs>
  <rect width="1200" height="800" fill="url(#dots2)"/>
  <rect x="14" y="14" width="1172" height="772" rx="6" fill="none" stroke="#2b2b2b" stroke-width="2" stroke-linecap="round"/>
  <rect x="17" y="11" width="1166" height="778" rx="6" fill="none" stroke="#2b2b2b" stroke-width="1" opacity="0.35"/>
  <text x="600" y="50" text-anchor="middle" class="t-title">核心维度差异速写</text>
  <path d="M 470,60 q 7.222222222222222,-3 14.444444444444445,0 q 7.222222222222222,3 14.444444444444445,0 q 7.222222222222222,-3 14.444444444444445,0 q 7.222222222222222,3 14.444444444444445,0 q 7.222222222222222,-3 14.444444444444445,0 q 7.222222222222222,3 14.444444444444445,0 q 7.222222222222222,-3 14.444444444444445,0 q 7.222222222222222,3 14.444444444444445,0 q 7.222222222222222,-3 14.444444444444445,0 q 7.222222222222222,3 14.444444444444445,0 q 7.222222222222222,-3 14.444444444444445,0 q 7.222222222222222,3 14.444444444444445,0 q 7.222222222222222,-3 14.444444444444445,0 q 7.222222222222222,3 14.444444444444445,0 q 7.222222222222222,-3 14.444444444444445,0 q 7.222222222222222,3 14.444444444444445,0 q 7.222222222222222,-3 14.444444444444445,0 q 7.222222222222222,3 14.444444444444445,0 " fill="none" stroke="#2b2b2b" stroke-width="2" stroke-linecap="round"/>
  <text x="600" y="80" text-anchor="middle" class="t-sub">三个关键维度 × 三种范式 · 约束力递进 · 本质各不相同</text>
  <text x="270" y="118" text-anchor="middle" class="t-col">openflow</text>
  <text x="270" y="136" text-anchor="middle" class="t-coltag" fill="#3b6ea5">编排器</text>
  <path d="M 215,143 q 7.857142857142857,-3 15.714285714285714,0 q 7.857142857142857,3 15.714285714285714,0 q 7.857142857142857,-3 15.714285714285714,0 q 7.857142857142857,3 15.714285714285714,0 q 7.857142857142857,-3 15.714285714285714,0 q 7.857142857142857,3 15.714285714285714,0 q 7.857142857142857,-3 15.714285714285714,0 " fill="none" stroke="#3b6ea5" stroke-width="2" stroke-linecap="round"/>
  <text x="600" y="118" text-anchor="middle" class="t-col">spec-superflow</text>
  <text x="600" y="136" text-anchor="middle" class="t-coltag" fill="#6b5b95">融合器</text>
  <path d="M 545,143 q 7.857142857142857,-3 15.714285714285714,0 q 7.857142857142857,3 15.714285714285714,0 q 7.857142857142857,-3 15.714285714285714,0 q 7.857142857142857,3 15.714285714285714,0 q 7.857142857142857,-3 15.714285714285714,0 q 7.857142857142857,3 15.714285714285714,0 q 7.857142857142857,-3 15.714285714285714,0 " fill="none" stroke="#6b5b95" stroke-width="2" stroke-linecap="round"/>
  <text x="930" y="118" text-anchor="middle" class="t-col">comet</text>
  <text x="930" y="136" text-anchor="middle" class="t-coltag" fill="#4a7c59">平台</text>
  <path d="M 875,143 q 7.857142857142857,-3 15.714285714285714,0 q 7.857142857142857,3 15.714285714285714,0 q 7.857142857142857,-3 15.714285714285714,0 q 7.857142857142857,3 15.714285714285714,0 q 7.857142857142857,-3 15.714285714285714,0 q 7.857142857142857,3 15.714285714285714,0 q 7.857142857142857,-3 15.714285714285714,0 " fill="none" stroke="#4a7c59" stroke-width="2" stroke-linecap="round"/>
  <line x1="437" y1="155" x2="437" y2="690" stroke="#2b2b2b" stroke-width="1" stroke-dasharray="2,6" opacity="0.4"/>
  <line x1="767" y1="155" x2="767" y2="690" stroke="#2b2b2b" stroke-width="1" stroke-dasharray="2,6" opacity="0.4"/>
  <path d="M 30,212 L 108,204 L 112,260 L 26,254 Z" fill="#fff4c2" stroke="#d9c27a" stroke-width="1.4"/>
  <text x="69" y="228" text-anchor="middle" class="t-row">①</text>
  <text x="69" y="248" text-anchor="middle" class="t-row" font-size="11">状态机</text>
  <rect x="125" y="158" width="290" height="150" rx="7" fill="#eaf1f8" stroke="#2b2b2b" stroke-width="1.8" stroke-linecap="round" stroke-linejoin="round" transform="rotate(-0.6 270.0 233.0)"/>
  <rect x="127.2" y="156.4" width="290" height="150" rx="7" fill="none" stroke="#2b2b2b" stroke-width="1" opacity="0.3" transform="rotate(-0.6 270.0 233.0)"/>
  <text x="270.0" y="184" text-anchor="middle" class="t-cell" fill="#3b6ea5">扁平推断</text>
  <line x1="143" y1="192" x2="397" y2="192" stroke="#3b6ea5" stroke-width="1" opacity="0.4"/>
  <text x="270.0" y="212" text-anchor="middle" class="t-b">5 phase + capture mode</text>
  <text x="270.0" y="232" text-anchor="middle" class="t-b">状态来源：status.md > 文件扫描</text>
  <text x="270.0" y="252" text-anchor="middle" class="t-b">> 会话记忆</text>
  <text x="270.0" y="272" text-anchor="middle" class="t-b">无非法转移拦截（靠 AI 自觉）</text>
  <text x="270.0" y="292" text-anchor="middle" class="t-b">文件推断回退 5 级 · 脆弱</text>
  <rect x="455" y="158" width="290" height="150" rx="7" fill="#f1eef7" stroke="#2b2b2b" stroke-width="1.8" stroke-linecap="round" stroke-linejoin="round" transform="rotate(0.5 600.0 233.0)"/>
  <rect x="457.2" y="156.4" width="290" height="150" rx="7" fill="none" stroke="#2b2b2b" stroke-width="1" opacity="0.3" transform="rotate(0.5 600.0 233.0)"/>
  <text x="600.0" y="184" text-anchor="middle" class="t-cell" fill="#6b5b95">严格转移</text>
  <line x1="473" y1="192" x2="727" y2="192" stroke="#6b5b95" stroke-width="1" opacity="0.4"/>
  <text x="600.0" y="212" text-anchor="middle" class="t-b">8 状态 + 9 条合法转移矩阵</text>
  <text x="600.0" y="232" text-anchor="middle" class="t-b">guard.mjs TRANSITION_CHECKS</text>
  <text x="600.0" y="252" text-anchor="middle" class="t-b">非法转移 → exit=1 拦截</text>
  <text x="600.0" y="272" text-anchor="middle" class="t-b">（可机器执行的硬门禁）</text>
  <text x="600.0" y="292" text-anchor="middle" class="t-b">SHA256 + 内容语义双层过时</text>
  <rect x="785" y="158" width="290" height="150" rx="7" fill="#eaf3ec" stroke="#2b2b2b" stroke-width="1.8" stroke-linecap="round" stroke-linejoin="round" transform="rotate(-0.4 930.0 233.0)"/>
  <rect x="787.2" y="156.4" width="290" height="150" rx="7" fill="none" stroke="#2b2b2b" stroke-width="1" opacity="0.3" transform="rotate(-0.4 930.0 233.0)"/>
  <text x="930.0" y="184" text-anchor="middle" class="t-cell" fill="#4a7c59">确定性引擎</text>
  <line x1="803" y1="192" x2="1057" y2="192" stroke="#4a7c59" stroke-width="1" opacity="0.4"/>
  <text x="930.0" y="212" text-anchor="middle" class="t-b">8 事件纯函数转换表</text>
  <text x="930.0" y="232" text-anchor="middle" class="t-b">三层冗余强制（transition/guard/</text>
  <text x="930.0" y="252" text-anchor="middle" class="t-b">hook-guard）· 无 LLM 无网络</text>
  <text x="930.0" y="272" text-anchor="middle" class="t-b">Classic Resolver + 12 step evidence</text>
  <text x="930.0" y="292" text-anchor="middle" class="t-b">可精确恢复（trajectory/checkpoint）</text>
  <path d="M 30,397 L 108,389 L 112,445 L 26,439 Z" fill="#fff4c2" stroke="#d9c27a" stroke-width="1.4"/>
  <text x="69" y="413" text-anchor="middle" class="t-row">②</text>
  <text x="69" y="433" text-anchor="middle" class="t-row" font-size="11">规划→执行桥梁</text>
  <rect x="125" y="343" width="290" height="150" rx="7" fill="#eaf1f8" stroke="#2b2b2b" stroke-width="1.8" stroke-linecap="round" stroke-linejoin="round" transform="rotate(0.6 270.0 418.0)"/>
  <rect x="127.2" y="341.4" width="290" height="150" rx="7" fill="none" stroke="#2b2b2b" stroke-width="1" opacity="0.3" transform="rotate(0.6 270.0 418.0)"/>
  <text x="270.0" y="369" text-anchor="middle" class="t-cell" fill="#3b6ea5">plan-ready.md</text>
  <line x1="143" y1="377" x2="397" y2="377" stroke="#3b6ea5" stroke-width="1" opacity="0.4"/>
  <text x="270.0" y="397" text-anchor="middle" class="t-b">实现计划 brief · 强制 12 段</text>
  <text x="270.0" y="417" text-anchor="middle" class="t-b">Source Coverage（源→验收→切片）</text>
  <text x="270.0" y="437" text-anchor="middle" class="t-b">Implementation Slices（TDD 3 步）</text>
  <text x="270.0" y="457" text-anchor="middle" class="t-b">解决「SP 不读 config.yaml」</text>
  <text x="270.0" y="477" text-anchor="middle" class="t-b">本质：足够详细的计划</text>
  <rect x="455" y="343" width="290" height="150" rx="7" fill="#f1eef7" stroke="#2b2b2b" stroke-width="1.8" stroke-linecap="round" stroke-linejoin="round" transform="rotate(-0.5 600.0 418.0)"/>
  <rect x="457.2" y="341.4" width="290" height="150" rx="7" fill="none" stroke="#2b2b2b" stroke-width="1" opacity="0.3" transform="rotate(-0.5 600.0 418.0)"/>
  <text x="600.0" y="369" text-anchor="middle" class="t-cell" fill="#6b5b95">execution-contract.md</text>
  <line x1="473" y1="377" x2="727" y2="377" stroke="#6b5b95" stroke-width="1" opacity="0.4"/>
  <text x="600.0" y="397" text-anchor="middle" class="t-b">可检查的意图契约 · 7 大节</text>
  <text x="600.0" y="417" text-anchor="middle" class="t-b">Intent Lock（锁死 in/out scope）</text>
  <text x="600.0" y="437" text-anchor="middle" class="t-b">Test Obligations + Review Gates</text>
  <text x="600.0" y="457" text-anchor="middle" class="t-b">解析引擎从 4 工件自动提取</text>
  <text x="600.0" y="477" text-anchor="middle" class="t-b">需用户显式批准（DP-3）</text>
  <rect x="785" y="343" width="290" height="150" rx="7" fill="#eaf3ec" stroke="#2b2b2b" stroke-width="1.8" stroke-linecap="round" stroke-linejoin="round" transform="rotate(0.4 930.0 418.0)"/>
  <rect x="787.2" y="341.4" width="290" height="150" rx="7" fill="none" stroke="#2b2b2b" stroke-width="1" opacity="0.3" transform="rotate(0.4 930.0 418.0)"/>
  <text x="930.0" y="369" text-anchor="middle" class="t-cell" fill="#4a7c59">design-context.json</text>
  <line x1="803" y1="377" x2="1057" y2="377" stroke="#4a7c59" stroke-width="1" opacity="0.4"/>
  <text x="930.0" y="397" text-anchor="middle" class="t-b">design→build 上下文交接包</text>
  <text x="930.0" y="417" text-anchor="middle" class="t-b">SHA256 追踪（handoff_hash）</text>
  <text x="930.0" y="437" text-anchor="middle" class="t-b">stale 检测 · 改动则强制重生</text>
  <text x="930.0" y="457" text-anchor="middle" class="t-b">context compression（-25~30% token）</text>
  <text x="930.0" y="477" text-anchor="middle" class="t-b">build 仍委托 SP writing-plans</text>
  <path d="M 30,582 L 108,574 L 112,630 L 26,624 Z" fill="#fff4c2" stroke="#d9c27a" stroke-width="1.4"/>
  <text x="69" y="598" text-anchor="middle" class="t-row">③</text>
  <text x="69" y="618" text-anchor="middle" class="t-row" font-size="11">约束力</text>
  <rect x="125" y="528" width="290" height="160" rx="7" fill="#eaf1f8" stroke="#2b2b2b" stroke-width="1.8" stroke-linecap="round" stroke-linejoin="round" transform="rotate(-0.6 270.0 608.0)"/>
  <rect x="127.2" y="526.4" width="290" height="160" rx="7" fill="none" stroke="#2b2b2b" stroke-width="1" opacity="0.3" transform="rotate(-0.6 270.0 608.0)"/>
  <text x="270.0" y="554" text-anchor="middle" class="t-cell" fill="#3b6ea5">纯软</text>
  <line x1="143" y1="562" x2="397" y2="562" stroke="#3b6ea5" stroke-width="1" opacity="0.4"/>
  <text x="270.0" y="582" text-anchor="middle" class="t-b">全部约束写在 markdown</text>
  <text x="270.0" y="602" text-anchor="middle" class="t-b">无任何运行时强制</text>
  <text x="270.0" y="622" text-anchor="middle" class="t-b">仅 detectWorkflowConflicts</text>
  <text x="270.0" y="642" text-anchor="middle" class="t-b">事后冲突告警</text>
  <text x="270.0" y="662" text-anchor="middle" class="t-b">（且告警本身依赖 AI 读取）</text>
  <text x="270.0" y="682" text-anchor="middle" class="t-b">本质：君子协定</text>
  <rect x="455" y="528" width="290" height="160" rx="7" fill="#f1eef7" stroke="#2b2b2b" stroke-width="1.8" stroke-linecap="round" stroke-linejoin="round" transform="rotate(0.5 600.0 608.0)"/>
  <rect x="457.2" y="526.4" width="290" height="160" rx="7" fill="none" stroke="#2b2b2b" stroke-width="1" opacity="0.3" transform="rotate(0.5 600.0 608.0)"/>
  <text x="600.0" y="554" text-anchor="middle" class="t-cell" fill="#6b5b95">软 + 硬</text>
  <line x1="473" y1="562" x2="727" y2="562" stroke="#6b5b95" stroke-width="1" opacity="0.4"/>
  <text x="600.0" y="582" text-anchor="middle" class="t-b">① 铁律（SKILL.md 大写直引）</text>
  <text x="600.0" y="602" text-anchor="middle" class="t-b">② guard.mjs 五维度 exit code</text>
  <text x="600.0" y="622" text-anchor="middle" class="t-b">③ phase-guard.md 软门禁</text>
  <text x="600.0" y="642" text-anchor="middle" class="t-b">+ DP-3 批准门禁</text>
  <text x="600.0" y="662" text-anchor="middle" class="t-b">⚠ 硬门禁依赖 orchestrator 主动调</text>
  <text x="600.0" y="682" text-anchor="middle" class="t-b">本质：法律 + 君子协定</text>
  <rect x="785" y="528" width="290" height="160" rx="7" fill="#eaf3ec" stroke="#2b2b2b" stroke-width="1.8" stroke-linecap="round" stroke-linejoin="round" transform="rotate(-0.4 930.0 608.0)"/>
  <rect x="787.2" y="526.4" width="290" height="160" rx="7" fill="none" stroke="#2b2b2b" stroke-width="1" opacity="0.3" transform="rotate(-0.4 930.0 608.0)"/>
  <text x="930.0" y="554" text-anchor="middle" class="t-cell" fill="#4a7c59">软 + 硬 + 物理</text>
  <line x1="803" y1="562" x2="1057" y2="562" stroke="#4a7c59" stroke-width="1" opacity="0.4"/>
  <text x="930.0" y="582" text-anchor="middle" class="t-b">① phase-guard rule（每轮注入）</text>
  <text x="930.0" y="602" text-anchor="middle" class="t-b">② guard.mjs（phase 退出 + --apply）</text>
  <text x="930.0" y="622" text-anchor="middle" class="t-b">③ hook-guard.mjs PreToolUse</text>
  <text x="930.0" y="642" text-anchor="middle" class="t-b">   物理拦截文件写入（open/design/</text>
  <text x="930.0" y="662" text-anchor="middle" class="t-b">   archive 阶段写源码直接 BLOCK）</text>
  <text x="930.0" y="682" text-anchor="middle" class="t-b">④ intent-frame（conf&lt;0.7 强制 ask）</text>
  <line x1="125" y1="725" x2="1075" y2="725" stroke="#2b2b2b" stroke-width="2" stroke-linecap="round" marker-end="url(#h-ink2)"/>
  <circle cx="270" cy="725" r="5" fill="#3b6ea5"/><circle cx="600" cy="725" r="5" fill="#6b5b95"/><circle cx="930" cy="725" r="5" fill="#4a7c59"/>
  <text x="270" y="752" text-anchor="middle" class="t-axis" fill="#3b6ea5">描述性</text>
  <text x="600" y="752" text-anchor="middle" class="t-axis" fill="#6b5b95">强制性（exit 拦截）</text>
  <text x="930" y="752" text-anchor="middle" class="t-axis" fill="#4a7c59">确定性 + 物理性</text>
  <text x="600" y="778" text-anchor="middle" class="t-cap">约束力递进 · comet 的 hook-guard 是唯一由平台在写入前强制触发的硬门禁</text>
  <defs>
    <marker id="h-ink2" markerWidth="11" markerHeight="9" refX="9" refY="4.5" orient="auto"><polygon points="0 0,10 4.5,0 9" fill="#2b2b2b"/></marker>
  </defs>
</svg>