<svg xmlns="http://www.w3.org/2000/svg" viewBox="0 0 1200 700" width="1200" height="700">
  <style>
    text { font-family: 'Comic Sans MS', 'Microsoft YaHei', 'PingFang SC', 'Segoe UI', sans-serif; }
    .t-title { font-size: 24px; font-weight: 700; fill: #2b2b2b; }
    .t-sub { font-size: 13px; fill: #6b6256; font-style: italic; }
    .t-name { font-size: 19px; font-weight: 700; fill: #2b2b2b; }
    .t-tag { font-size: 13px; font-weight: 600; }
    .t-box { font-size: 13px; font-weight: 600; fill: #2b2b2b; }
    .t-b { font-size: 11.5px; fill: #4a4438; }
    .t-cap { font-size: 12px; fill: #6b6256; font-style: italic; }
    .t-sticky { font-size: 11.5px; fill: #5a4a2a; }
    .t-axis { font-size: 13px; font-weight: 600; fill: #2b2b2b; }
  </style>
  <rect width="1200" height="700" fill="#fbf7f0"/>
  <defs><pattern id="dots" x="0" y="0" width="28" height="28" patternUnits="userSpaceOnUse"><circle cx="2" cy="2" r="0.7" fill="#e2d9c8"/></pattern></defs>
  <rect width="1200" height="700" fill="url(#dots)"/>
  <rect x="14" y="14" width="1172" height="672" rx="6" fill="none" stroke="#2b2b2b" stroke-width="2" stroke-linecap="round"/>
  <rect x="17" y="11" width="1166" height="678" rx="6" fill="none" stroke="#2b2b2b" stroke-width="1" opacity="0.35"/>
  <defs>
    <marker id="h-ink" markerWidth="11" markerHeight="9" refX="9" refY="4.5" orient="auto"><polygon points="0 0,10 4.5,0 9" fill="#2b2b2b"/></marker>
    <marker id="h-blue" markerWidth="11" markerHeight="9" refX="9" refY="4.5" orient="auto"><polygon points="0 0,10 4.5,0 9" fill="#3b6ea5"/></marker>
    <marker id="h-green" markerWidth="11" markerHeight="9" refX="9" refY="4.5" orient="auto"><polygon points="0 0,10 4.5,0 9" fill="#4a7c59"/></marker>
    <marker id="h-orange" markerWidth="11" markerHeight="9" refX="9" refY="4.5" orient="auto"><polygon points="0 0,10 4.5,0 9" fill="#c97b3a"/></marker>
  </defs>
  <text x="600" y="52" text-anchor="middle" class="t-title">三种范式：编排器 / 融合器 / 平台</text>
  <path d="M 430,62 q 7.083333333333333,-3 14.166666666666666,0 q 7.083333333333333,3 14.166666666666666,0 q 7.083333333333333,-3 14.166666666666666,0 q 7.083333333333333,3 14.166666666666666,0 q 7.083333333333333,-3 14.166666666666666,0 q 7.083333333333333,3 14.166666666666666,0 q 7.083333333333333,-3 14.166666666666666,0 q 7.083333333333333,3 14.166666666666666,0 q 7.083333333333333,-3 14.166666666666666,0 q 7.083333333333333,3 14.166666666666666,0 q 7.083333333333333,-3 14.166666666666666,0 q 7.083333333333333,3 14.166666666666666,0 q 7.083333333333333,-3 14.166666666666666,0 q 7.083333333333333,3 14.166666666666666,0 q 7.083333333333333,-3 14.166666666666666,0 q 7.083333333333333,3 14.166666666666666,0 q 7.083333333333333,-3 14.166666666666666,0 q 7.083333333333333,3 14.166666666666666,0 q 7.083333333333333,-3 14.166666666666666,0 q 7.083333333333333,3 14.166666666666666,0 q 7.083333333333333,-3 14.166666666666666,0 q 7.083333333333333,3 14.166666666666666,0 q 7.083333333333333,-3 14.166666666666666,0 q 7.083333333333333,3 14.166666666666666,0 " fill="none" stroke="#2b2b2b" stroke-width="2" stroke-linecap="round"/>
  <text x="600" y="82" text-anchor="middle" class="t-sub">同源三种策略 —— 从轻到重：松耦合编排 → 高内聚融合 → 平台化全功能</text>
  <g transform="rotate(-0.6 200 380)">
  <text x="200" y="118" text-anchor="middle" class="t-name">openflow</text>
  <text x="200" y="138" text-anchor="middle" class="t-tag" fill="#3b6ea5">编排器 Orchestrator</text>
  <path d="M 140,144 q 7.5,-3 15.0,0 q 7.5,3 15.0,0 q 7.5,-3 15.0,0 q 7.5,3 15.0,0 q 7.5,-3 15.0,0 q 7.5,3 15.0,0 q 7.5,-3 15.0,0 q 7.5,3 15.0,0 " fill="none" stroke="#3b6ea5" stroke-width="2" stroke-linecap="round"/>
  <rect x="150" y="180" width="100" height="46" rx="7" fill="#ffffff" stroke="#2b2b2b" stroke-width="2" stroke-linecap="round" stroke-linejoin="round" transform="rotate(-1 200.0 203.0)"/>
  <rect x="152.5" y="178.2" width="100" height="46" rx="7" fill="none" stroke="#2b2b2b" stroke-width="1" opacity="0.3" transform="rotate(-1 200.0 203.0)"/>
  <text x="200" y="200" text-anchor="middle" class="t-box">openflow</text>
  <text x="200" y="215" text-anchor="middle" class="t-b">（极薄胶水层）</text>
  <rect x="80" y="270" width="110" height="44" rx="7" fill="#eaf1f8" stroke="#2b2b2b" stroke-width="2" stroke-linecap="round" stroke-linejoin="round" transform="rotate(2 135.0 292.0)"/>
  <rect x="82.5" y="268.2" width="110" height="44" rx="7" fill="none" stroke="#2b2b2b" stroke-width="1" opacity="0.3" transform="rotate(2 135.0 292.0)"/>
  <text x="135" y="289" text-anchor="middle" class="t-box">OpenSpec</text>
  <text x="135" y="304" text-anchor="middle" class="t-b">外部·PATH</text>
  <rect x="210" y="270" width="110" height="44" rx="7" fill="#eaf1f8" stroke="#2b2b2b" stroke-width="2" stroke-linecap="round" stroke-linejoin="round" transform="rotate(-2 265.0 292.0)"/>
  <rect x="212.5" y="268.2" width="110" height="44" rx="7" fill="none" stroke="#2b2b2b" stroke-width="1" opacity="0.3" transform="rotate(-2 265.0 292.0)"/>
  <text x="265" y="289" text-anchor="middle" class="t-box">Superpowers</text>
  <text x="265" y="304" text-anchor="middle" class="t-b">外部·文件</text>
  <path d="M 180 226 Q 160 248 150 268" fill="none" stroke="#3b6ea5" stroke-width="1.8" stroke-linecap="round" marker-end="url(#h-blue)"/>
  <path d="M 220 226 Q 240 248 250 268" fill="none" stroke="#3b6ea5" stroke-width="1.8" stroke-linecap="round" marker-end="url(#h-blue)"/>
  <text x="200" y="350" text-anchor="middle" class="t-cap">自己不演奏 · 只指挥</text>
  <path d="M 60,380 L 200,380 L 210,390 L 210,430 L 60,430 Z" fill="#fff4c2" stroke="#d9c27a" stroke-width="1.4" transform="rotate(-3 135.0 405.0)"/>
  <path d="M 200,380 L 200,390 L 210,390" fill="none" stroke="#d9c27a" stroke-width="1.2" transform="rotate(-3 135.0 405.0)"/>
  <text x="135.0" y="402" text-anchor="middle" class="t-sticky" transform="rotate(-3 135.0 405.0)">纯 markdown 约束（软）</text>
  <text x="135.0" y="418" text-anchor="middle" class="t-sticky" transform="rotate(-3 135.0 405.0)">无运行时强制</text>
  <path d="M 180,445 L 320,445 L 330,455 L 330,495 L 180,495 Z" fill="#fff4c2" stroke="#d9c27a" stroke-width="1.4" transform="rotate(2.5 255.0 470.0)"/>
  <path d="M 320,445 L 320,455 L 330,455" fill="none" stroke="#d9c27a" stroke-width="1.2" transform="rotate(2.5 255.0 470.0)"/>
  <text x="255.0" y="467" text-anchor="middle" class="t-sticky" transform="rotate(2.5 255.0 470.0)">无独有能力</text>
  <text x="255.0" y="483" text-anchor="middle" class="t-sticky" transform="rotate(2.5 255.0 470.0)">平台支持：4</text>
  <text x="200" y="552" text-anchor="middle" class="t-b" font-weight="600">不嵌入 · 不分叉</text>
  </g>
  <g transform="rotate(0.5 600 380)">
  <text x="600" y="118" text-anchor="middle" class="t-name">spec-superflow</text>
  <text x="600" y="138" text-anchor="middle" class="t-tag" fill="#6b5b95">融合器 Fusion</text>
  <path d="M 540,144 q 7.5,-3 15.0,0 q 7.5,3 15.0,0 q 7.5,-3 15.0,0 q 7.5,3 15.0,0 q 7.5,-3 15.0,0 q 7.5,3 15.0,0 q 7.5,-3 15.0,0 q 7.5,3 15.0,0 " fill="none" stroke="#6b5b95" stroke-width="2" stroke-linecap="round"/>
  <rect x="450" y="175" width="300" height="150" rx="7" fill="#f1eef7" stroke="#2b2b2b" stroke-width="2.2" stroke-linecap="round" stroke-linejoin="round" transform="rotate(-0.5 600.0 250.0)"/>
  <rect x="452.5" y="173.2" width="300" height="150" rx="7" fill="none" stroke="#2b2b2b" stroke-width="1" opacity="0.3" transform="rotate(-0.5 600.0 250.0)"/>
  <text x="600" y="196" text-anchor="middle" class="t-b" font-style="italic">自包含单一 owner</text>
  <rect x="468" y="210" width="124" height="46" rx="7" fill="#ffffff" stroke="#2b2b2b" stroke-width="2" stroke-linecap="round" stroke-linejoin="round" transform="rotate(1 530.0 233.0)"/>
  <rect x="470.5" y="208.2" width="124" height="46" rx="7" fill="none" stroke="#2b2b2b" stroke-width="1" opacity="0.3" transform="rotate(1 530.0 233.0)"/>
  <text x="530" y="230" text-anchor="middle" class="t-box">OpenSpec 引擎</text>
  <text x="530" y="244" text-anchor="middle" class="t-b">schema/解析/验证</text>
  <rect x="608" y="210" width="124" height="46" rx="7" fill="#ffffff" stroke="#2b2b2b" stroke-width="2" stroke-linecap="round" stroke-linejoin="round" transform="rotate(-1 670.0 233.0)"/>
  <rect x="610.5" y="208.2" width="124" height="46" rx="7" fill="none" stroke="#2b2b2b" stroke-width="1" opacity="0.3" transform="rotate(-1 670.0 233.0)"/>
  <text x="670" y="230" text-anchor="middle" class="t-box">SP 铁律</text>
  <text x="670" y="244" text-anchor="middle" class="t-b">TDD/debug/review</text>
  <rect x="500" y="270" width="200" height="38" rx="7" fill="#fbe9d6" stroke="#c97b3a" stroke-width="2" stroke-linecap="round" stroke-linejoin="round" transform="rotate(0.5 600.0 289.0)"/>
  <rect x="502.5" y="268.2" width="200" height="38" rx="7" fill="none" stroke="#c97b3a" stroke-width="1" opacity="0.3" transform="rotate(0.5 600.0 289.0)"/>
  <text x="600" y="293" text-anchor="middle" class="t-box" fill="#7a4a1a">execution-contract 桥接</text>
  <text x="600" y="352" text-anchor="middle" class="t-cap">全能乐队 · 全内化</text>
  <path d="M 455,380 L 590,380 L 600,390 L 600,430 L 455,430 Z" fill="#fff4c2" stroke="#d9c27a" stroke-width="1.4" transform="rotate(2.5 527.5 405.0)"/>
  <path d="M 590,380 L 590,390 L 600,390" fill="none" stroke="#d9c27a" stroke-width="1.2" transform="rotate(2.5 527.5 405.0)"/>
  <text x="527.5" y="402" text-anchor="middle" class="t-sticky" transform="rotate(2.5 527.5 405.0)">软 + 硬门禁</text>
  <text x="527.5" y="418" text-anchor="middle" class="t-sticky" transform="rotate(2.5 527.5 405.0)">guard.mjs exit 拦截</text>
  <path d="M 610,445 L 745,445 L 755,455 L 755,495 L 610,495 Z" fill="#fff4c2" stroke="#d9c27a" stroke-width="1.4" transform="rotate(-3 682.5 470.0)"/>
  <path d="M 745,445 L 745,455 L 755,455" fill="none" stroke="#d9c27a" stroke-width="1.2" transform="rotate(-3 682.5 470.0)"/>
  <text x="682.5" y="467" text-anchor="middle" class="t-sticky" transform="rotate(-3 682.5 470.0)">桥接层独创</text>
  <text x="682.5" y="483" text-anchor="middle" class="t-sticky" transform="rotate(-3 682.5 470.0)">平台支持：7+</text>
  <text x="600" y="552" text-anchor="middle" class="t-b" font-weight="600">吸收源码 · 自包含</text>
  </g>
  <g transform="rotate(-0.4 1000 380)">
  <text x="1000" y="118" text-anchor="middle" class="t-name">comet</text>
  <text x="1000" y="138" text-anchor="middle" class="t-tag" fill="#4a7c59">平台 Platform</text>
  <path d="M 940,144 q 7.5,-3 15.0,0 q 7.5,3 15.0,0 q 7.5,-3 15.0,0 q 7.5,3 15.0,0 q 7.5,-3 15.0,0 q 7.5,3 15.0,0 q 7.5,-3 15.0,0 q 7.5,3 15.0,0 " fill="none" stroke="#4a7c59" stroke-width="2" stroke-linecap="round"/>
  <rect x="850" y="175" width="250" height="150" rx="7" fill="#eaf3ec" stroke="#2b2b2b" stroke-width="2.2" stroke-linecap="round" stroke-linejoin="round" transform="rotate(0.5 975.0 250.0)"/>
  <rect x="852.5" y="173.2" width="250" height="150" rx="7" fill="none" stroke="#2b2b2b" stroke-width="1" opacity="0.3" transform="rotate(0.5 975.0 250.0)"/>
  <text x="975" y="196" text-anchor="middle" class="t-b" font-style="italic">Node-only runtime 平台</text>
  <rect x="866" y="210" width="150" height="46" rx="7" fill="#ffffff" stroke="#2b2b2b" stroke-width="2" stroke-linecap="round" stroke-linejoin="round" transform="rotate(-1 941.0 233.0)"/>
  <rect x="868.5" y="208.2" width="150" height="46" rx="7" fill="none" stroke="#2b2b2b" stroke-width="1" opacity="0.3" transform="rotate(-1 941.0 233.0)"/>
  <text x="941" y="230" text-anchor="middle" class="t-box">确定性状态机</text>
  <text x="941" y="244" text-anchor="middle" class="t-b">自带引擎（无 LLM）</text>
  <rect x="1024" y="210" width="64" height="46" rx="7" fill="#fbe9d6" stroke="#c97b3a" stroke-width="2" stroke-linecap="round" stroke-linejoin="round" transform="rotate(1.5 1056.0 233.0)"/>
  <rect x="1026.5" y="208.2" width="64" height="46" rx="7" fill="none" stroke="#c97b3a" stroke-width="1" opacity="0.3" transform="rotate(1.5 1056.0 233.0)"/>
  <text x="1056" y="230" text-anchor="middle" class="t-box">Skill</text>
  <text x="1056" y="244" text-anchor="middle" class="t-box">工厂</text>
  <rect x="900" y="270" width="150" height="38" rx="7" fill="#ffffff" stroke="#2b2b2b" stroke-width="2" stroke-linecap="round" stroke-linejoin="round" transform="rotate(0.5 975.0 289.0)"/>
  <rect x="902.5" y="268.2" width="150" height="38" rx="7" fill="none" stroke="#2b2b2b" stroke-width="1" opacity="0.3" transform="rotate(0.5 975.0 289.0)"/>
  <text x="975" y="293" text-anchor="middle" class="t-b">hook-guard 物理拦截</text>
  <text x="975" y="352" text-anchor="middle" class="t-cap">唱片公司 + 发行渠道</text>
  <path d="M 850,380 L 990,380 L 1000,390 L 1000,430 L 850,430 Z" fill="#fff4c2" stroke="#d9c27a" stroke-width="1.4" transform="rotate(-3 925.0 405.0)"/>
  <path d="M 990,380 L 990,390 L 1000,390" fill="none" stroke="#d9c27a" stroke-width="1.2" transform="rotate(-3 925.0 405.0)"/>
  <text x="925.0" y="402" text-anchor="middle" class="t-sticky" transform="rotate(-3 925.0 405.0)">软 + 硬 + 物理门禁</text>
  <text x="925.0" y="418" text-anchor="middle" class="t-sticky" transform="rotate(-3 925.0 405.0)">Node-only · 33 平台</text>
  <path d="M 1010,445 L 1150,445 L 1160,455 L 1160,495 L 1010,495 Z" fill="#fff4c2" stroke="#d9c27a" stroke-width="1.4" transform="rotate(2.5 1085.0 470.0)"/>
  <path d="M 1150,445 L 1150,455 L 1160,455" fill="none" stroke="#d9c27a" stroke-width="1.2" transform="rotate(2.5 1085.0 470.0)"/>
  <text x="1085.0" y="467" text-anchor="middle" class="t-sticky" transform="rotate(2.5 1085.0 470.0)">独有：Skill 创作分发</text>
  <text x="1085.0" y="483" text-anchor="middle" class="t-sticky" transform="rotate(2.5 1085.0 470.0)">可恢复 · 可校验</text>
  <text x="1000" y="552" text-anchor="middle" class="t-b" font-weight="600">调用 + 自带 · 平台化</text>
  </g>
  <line x1="120" y1="600" x2="1080" y2="600" stroke="#2b2b2b" stroke-width="2" stroke-linecap="round" marker-end="url(#h-ink)"/>
  <circle cx="200" cy="600" r="5" fill="#3b6ea5"/>
  <circle cx="600" cy="600" r="5" fill="#6b5b95"/>
  <circle cx="1000" cy="600" r="5" fill="#4a7c59"/>
  <text x="200" y="628" text-anchor="middle" class="t-axis" fill="#3b6ea5">松耦合编排</text>
  <text x="600" y="628" text-anchor="middle" class="t-axis" fill="#6b5b95">高内聚融合</text>
  <text x="1000" y="628" text-anchor="middle" class="t-axis" fill="#4a7c59">平台化全功能</text>
  <text x="600" y="658" text-anchor="middle" class="t-sub">整合程度递进 · 复杂度递增 · 可控性递增</text>
  <text x="120" y="678" class="t-cap">轻</text>
  <text x="1060" y="678" class="t-cap">重</text>
</svg>