<svg xmlns="http://www.w3.org/2000/svg" viewBox="0 0 1000 600" width="1000" height="600">
  <style>
    text { font-family: 'Helvetica Neue', Helvetica, Arial, 'PingFang SC', 'Microsoft YaHei', 'Microsoft JhengHei', 'SimHei', sans-serif; }
    .t-title { font-size: 19px; font-weight: 600; fill: #111827; }
    .t-sub { font-size: 12.5px; fill: #6b7280; }
    .t-h { font-size: 13.5px; font-weight: 600; fill: #111827; }
    .t-b { font-size: 11.5px; fill: #475569; }
    .t-sec { font-size: 11px; fill: #1e3a8a; }
    .t-tag { font-size: 11px; font-weight: 600; }
    .t-edge { font-size: 11.5px; fill: #374151; }
    .t-edge-em { font-size: 11.5px; font-weight: 600; fill: #065f46; }
  </style>
  <rect width="1000" height="600" fill="#ffffff"/>
  <defs>
    <marker id="a-blue" markerWidth="10" markerHeight="7" refX="9" refY="3.5" orient="auto"><polygon points="0 0,10 3.5,0 7" fill="#2563eb"/></marker>
    <marker id="a-orange" markerWidth="10" markerHeight="7" refX="9" refY="3.5" orient="auto"><polygon points="0 0,10 3.5,0 7" fill="#ea580c"/></marker>
    <marker id="a-green" markerWidth="10" markerHeight="7" refX="9" refY="3.5" orient="auto"><polygon points="0 0,10 3.5,0 7" fill="#16a34a"/></marker>
    <marker id="a-gray" markerWidth="10" markerHeight="7" refX="9" refY="3.5" orient="auto"><polygon points="0 0,10 3.5,0 7" fill="#94a3b8"/></marker>
    <marker id="a-red" markerWidth="10" markerHeight="7" refX="9" refY="3.5" orient="auto"><polygon points="0 0,10 3.5,0 7" fill="#dc2626"/></marker>
  </defs>
  <text x="500" y="30" text-anchor="middle" class="t-title">openflow 核心机制：plan-ready.md 翻译层（唯一上下文桥梁）</text>
  <text x="500" y="50" text-anchor="middle" class="t-sub">OpenSpec 规格语言 → 翻译 7 规则 → Superpowers 可消费的实现交接文档（templates/spec.md:82-185）</text>
  <rect x="30" y="80" width="220" height="320" rx="10" fill="#eff6ff" stroke="#bfdbfe" stroke-width="1.5"/>
  <text x="140" y="102" text-anchor="middle" class="t-h">OpenSpec 规格产出</text>
  <text x="140" y="118" text-anchor="middle" class="t-b">（spec 阶段调 openspec CLI 生成）</text>
  <rect x="44" y="142" width="192" height="36" rx="6" fill="#ffffff" stroke="#dbeafe" stroke-width="1.2"/>
  <text x="52" y="157" class="t-sec" font-weight="600">openspec/config.yaml</text>
  <text x="52" y="171" class="t-b">项目规则/编码约束/架构边界</text>
  <rect x="44" y="184" width="192" height="36" rx="6" fill="#ffffff" stroke="#dbeafe" stroke-width="1.2"/>
  <text x="52" y="199" class="t-sec" font-weight="600">proposal.md</text>
  <text x="52" y="213" class="t-b">需求范围 · What Changes</text>
  <rect x="44" y="226" width="192" height="36" rx="6" fill="#ffffff" stroke="#dbeafe" stroke-width="1.2"/>
  <text x="52" y="241" class="t-sec" font-weight="600">design.md</text>
  <text x="52" y="255" class="t-b">方案设计</text>
  <rect x="44" y="268" width="192" height="36" rx="6" fill="#ffffff" stroke="#dbeafe" stroke-width="1.2"/>
  <text x="52" y="283" class="t-sec" font-weight="600">specs/&lt;cap&gt;/spec.md</text>
  <text x="52" y="297" class="t-b">Requirements + Scenarios</text>
  <rect x="44" y="310" width="192" height="36" rx="6" fill="#ffffff" stroke="#dbeafe" stroke-width="1.2"/>
  <text x="52" y="325" class="t-sec" font-weight="600">tasks.md</text>
  <text x="52" y="339" class="t-b">验收任务清单</text>
  <rect x="44" y="352" width="192" height="36" rx="6" fill="#ffffff" stroke="#dbeafe" stroke-width="1.2"/>
  <text x="52" y="367" class="t-sec" font-weight="600">delta（变更）</text>
  <text x="52" y="381" class="t-b">ADDED/MODIFIED/REMOVED</text>
  <rect x="290" y="80" width="240" height="320" rx="10" fill="#fff7ed" stroke="#fb923c" stroke-width="1.8"/>
  <text x="410" y="102" text-anchor="middle" class="t-h" fill="#9a3412">spec 阶段 · 翻译层</text>
  <text x="410" y="118" text-anchor="middle" class="t-b" fill="#9a3412">templates/spec.md</text>
  <rect x="306" y="132" width="208" height="44" rx="6" fill="#ffffff" stroke="#fed7aa"/>
  <text x="410" y="150" text-anchor="middle" class="t-sec" font-weight="600">翻译 7 规则（spec.md:86-93）</text>
  <text x="410" y="166" text-anchor="middle" class="t-b">规格语言 → 实现交接语言</text>
  <text x="410" y="196" text-anchor="middle" class="t-b" fill="#9a3412">↓ 强制 12 段结构 ↓</text>
  <rect x="306" y="210" width="208" height="20" rx="4" fill="#fffbeb" stroke="#fde68a" stroke-width="1"/>
  <text x="314" y="224" class="t-sec">## Project Context</text>
  <rect x="306" y="233" width="208" height="20" rx="4" fill="#fffbeb" stroke="#fde68a" stroke-width="1"/>
  <text x="314" y="247" class="t-sec">## Applicable OpenSpec Rules</text>
  <rect x="306" y="256" width="208" height="20" rx="4" fill="#fffbeb" stroke="#fde68a" stroke-width="1"/>
  <text x="314" y="270" class="t-sec">## Goal / Non-Goals</text>
  <rect x="306" y="279" width="208" height="20" rx="4" fill="#fffbeb" stroke="#fde68a" stroke-width="1"/>
  <text x="314" y="293" class="t-sec">## Source Coverage（源→验收→切片）</text>
  <rect x="306" y="302" width="208" height="20" rx="4" fill="#fffbeb" stroke="#fde68a" stroke-width="1"/>
  <text x="314" y="316" class="t-sec">## File Responsibility Map</text>
  <rect x="306" y="325" width="208" height="20" rx="4" fill="#fffbeb" stroke="#fde68a" stroke-width="1"/>
  <text x="314" y="339" class="t-sec">## Implementation Slices（TDD 3 步）</text>
  <rect x="306" y="348" width="208" height="20" rx="4" fill="#fffbeb" stroke="#fde68a" stroke-width="1"/>
  <text x="314" y="362" class="t-sec">## Verification Plan</text>
  <rect x="306" y="371" width="208" height="20" rx="4" fill="#fffbeb" stroke="#fde68a" stroke-width="1"/>
  <text x="314" y="385" class="t-sec">## Superpowers Handoff</text>
  <rect x="570" y="120" width="170" height="100" rx="6" fill="#f0fdf4" stroke="#86efac" stroke-width="1.8"/>
  <path d="M 720 120 L 740 120 L 740 140 Z" fill="#bbf7d0"/>
  <path d="M 720 120 L 720 140 L 740 140" fill="none" stroke="#86efac" stroke-width="1.5"/>
  <text x="655" y="142" text-anchor="middle" class="t-h" fill="#15803d">plan-ready.md</text>
  <text x="655" y="160" text-anchor="middle" class="t-b">强制 12 段实现交接</text>
  <text x="655" y="178" text-anchor="middle" class="t-b">→ 唯一上下文桥梁</text>
  <text x="655" y="198" text-anchor="middle" class="t-b">翻译后跑 5 项自检</text>
  <rect x="570" y="232" width="170" height="56" rx="6" fill="#fefce8" stroke="#eab308"/>
  <text x="655" y="252" text-anchor="middle" class="t-h" fill="#92400e">5 项自检（spec.md:181）</text>
  <text x="655" y="270" text-anchor="middle" class="t-b">Source Coverage 完整</text>
  <text x="655" y="283" text-anchor="middle" class="t-b">Slices 含 TDD/验证/风险 · Handoff 非 TODO</text>
  <rect x="780" y="120" width="195" height="280" rx="10" fill="#faf5ff" stroke="#d8b4fe" stroke-width="1.5"/>
  <text x="877" y="142" text-anchor="middle" class="t-h" fill="#6b21a8">Superpowers 消费</text>
  <text x="877" y="158" text-anchor="middle" class="t-b">writing-plans + TDD</text>
  <rect x="794" y="174" width="167" height="48" rx="6" fill="#ffffff" stroke="#e9d5ff"/>
  <text x="802" y="190" class="t-sec" font-weight="600">build 前置 3 检查</text>
  <text x="802" y="205" class="t-b">Project Context / Rules /</text>
  <text x="802" y="217" class="t-b">Handoff 必须 非 TODO</text>
  <rect x="794" y="228" width="167" height="48" rx="6" fill="#ffffff" stroke="#e9d5ff"/>
  <text x="802" y="244" class="t-sec" font-weight="600">slice 展开</text>
  <text x="802" y="259" class="t-b">每 slice → 2-5 分钟</text>
  <text x="802" y="271" class="t-b">checkbox 步骤</text>
  <rect x="794" y="282" width="167" height="48" rx="6" fill="#ffffff" stroke="#e9d5ff"/>
  <text x="802" y="298" class="t-sec" font-weight="600">TDD 节奏</text>
  <text x="802" y="313" class="t-b">先写失败测试 → 实现</text>
  <text x="802" y="325" class="t-b">→ 每 task 一 commit</text>
  <rect x="794" y="336" width="167" height="48" rx="6" fill="#ffffff" stroke="#e9d5ff"/>
  <text x="802" y="352" class="t-sec" font-weight="600">产出</text>
  <text x="802" y="367" class="t-b">docs/superpowers/plans/</text>
  <text x="802" y="379" class="t-b">YYYY-MM-DD-&lt;变更&gt;.md</text>
  <line x1="250" y1="200" x2="286" y2="200" stroke="#ea580c" stroke-width="2" marker-end="url(#a-orange)"/>
  <text x="268" y="192" text-anchor="middle" class="t-edge-em">输入</text>
  <line x1="530" y1="170" x2="566" y2="170" stroke="#16a34a" stroke-width="2" marker-end="url(#a-green)"/>
  <text x="548" y="162" text-anchor="middle" class="t-edge-em">产出</text>
  <line x1="740" y1="170" x2="776" y2="170" stroke="#9333ea" stroke-width="2" marker-end="url(#a-orange)"/>
  <text x="758" y="162" text-anchor="middle" class="t-edge-em">消费</text>
  <rect x="30" y="440" width="945" height="138" rx="10" fill="#fef2f2" stroke="#fecaca" stroke-width="1.5"/>
  <text x="48" y="464" class="t-h" fill="#991b1b">⚠ 为什么必须翻译？——编排器模式的根本代价</text>
  <text x="48" y="488" class="t-b">templates/spec.md:82 与 build.md 反复强调：「Superpowers 本身不会自动读取 openspec/config.yaml；上下文必须通过 plan-ready.md 传递给 writing-plans」。</text>
  <text x="48" y="508" class="t-b">→ 即：若不显式把 OpenSpec 的项目规则复制进 plan-ready，这些规则就会在 Superpowers 执行时丢失。这是「两个独立系统拼接」必须付出的代价。</text>
  <text x="48" y="536" class="t-b" font-weight="600" fill="#991b1b">格式漂移发现（实现不一致）：</text>
  <text x="48" y="554" class="t-b">真实存档 openspec/changes/archive/.../plan-ready.md 是旧版 amendment 驱动格式（## 来源 / ## Amendments / ## 追加实现步骤），缺 Source Coverage / File Responsibility Map / Implementation Slices(TDD) /</text>
  <text x="48" y="570" class="t-b">Verification Plan / Superpowers Handoff 段 —— 说明 12 段硬化格式是 0.4.x 引入的，比该存档新（实现与历史产物的漂移）。</text>
</svg>