<svg xmlns="http://www.w3.org/2000/svg" viewBox="0 0 1100 600" width="1100" height="600">
  <style>
    text { font-family: 'Helvetica Neue', Helvetica, Arial, 'PingFang SC', 'Microsoft YaHei', 'Microsoft JhengHei', 'SimHei', sans-serif; }
    .t-title { font-size: 19px; font-weight: 600; fill: #111827; }
    .t-sub { font-size: 12.5px; fill: #6b7280; }
    .t-h { font-size: 13px; font-weight: 600; fill: #111827; }
    .t-b { font-size: 11px; fill: #475569; }
    .t-edge { font-size: 11px; fill: #1e3a8a; }
    .t-art { font-size: 10.5px; fill: #374151; }
    .t-note { font-size: 11px; fill: #6b7280; }
  </style>
  <rect width="1100" height="600" fill="#ffffff"/>
  <defs>
    <marker id="a-blue" markerWidth="10" markerHeight="7" refX="9" refY="3.5" orient="auto"><polygon points="0 0,10 3.5,0 7" fill="#2563eb"/></marker>
    <marker id="a-orange" markerWidth="10" markerHeight="7" refX="9" refY="3.5" orient="auto"><polygon points="0 0,10 3.5,0 7" fill="#ea580c"/></marker>
    <marker id="a-gray" markerWidth="10" markerHeight="7" refX="9" refY="3.5" orient="auto"><polygon points="0 0,10 3.5,0 7" fill="#94a3b8"/></marker>
    <marker id="a-green" markerWidth="10" markerHeight="7" refX="9" refY="3.5" orient="auto"><polygon points="0 0,10 3.5,0 7" fill="#16a34a"/></marker>
  </defs>
  <text x="550" y="30" text-anchor="middle" class="t-title">spec-superflow 9 个 Skill 协作关系（运行时交接）</text>
  <text x="550" y="50" text-anchor="middle" class="t-sub">workflow-orchestrator 按当前 state 路由 · 每条路由前先跑 guard.mjs（exit≠0 即 BLOCK）· 工件在各 skill 间流转</text>
  <rect x="430" y="74" width="240" height="64" rx="10" fill="#fee2e2" stroke="#dc2626" stroke-width="2"/>
  <text x="550" y="96" text-anchor="middle" class="t-h" fill="#991b1b">workflow-orchestrator（入口·独创）</text>
  <text x="550" y="113" text-anchor="middle" class="t-b">检测内容级状态 + 路由 + 拦截非法跳转</text>
  <text x="550" y="128" text-anchor="middle" class="t-b">不直接实现任何东西，只决定下一个 skill</text>
  <rect x="40" y="80" width="180" height="54" rx="8" fill="#fff7ed" stroke="#fb923c"/>
  <text x="130" y="102" text-anchor="middle" class="t-h" fill="#9a3412">guard.mjs</text>
  <text x="130" y="118" text-anchor="middle" class="t-b">五维度硬门禁</text>
  <text x="130" y="130" text-anchor="middle" class="t-b">exit code 拦截</text>
  <rect x="880" y="80" width="180" height="54" rx="8" fill="#ffffff" stroke="#cbd5e1"/>
  <text x="970" y="102" text-anchor="middle" class="t-h">.spec-superflow.yaml</text>
  <text x="970" y="118" text-anchor="middle" class="t-b">state + SHA256 hash</text>
  <text x="970" y="130" text-anchor="middle" class="t-b">26 字段 · 双层过时检测</text>
  <line x1="220" y1="107" x2="428" y2="107" stroke="#ea580c" stroke-width="1.6" marker-end="url(#a-orange)" stroke-dasharray="4,3"/>
  <line x1="670" y1="107" x2="878" y2="107" stroke="#ea580c" stroke-width="1.6" marker-end="url(#a-orange)" stroke-dasharray="4,3"/>
  <text x="324" y="100" text-anchor="middle" class="t-edge" fill="#9a3412">每路由前校验</text>
  <text x="774" y="100" text-anchor="middle" class="t-edge" fill="#9a3412">读/写状态</text>
  <line x1="550" y1="138" x2="550" y2="170" stroke="#94a3b8" stroke-width="1.5"/>
  <line x1="92" y1="170" x2="982" y2="170" stroke="#94a3b8" stroke-width="1.5"/>
  <text x="560" y="166" class="t-note">按 state 路由（dashed = orchestrator 派发）</text>
  <line x1="92" y1="170" x2="92" y2="296" stroke="#94a3b8" stroke-width="1.3" stroke-dasharray="3,3" marker-end="url(#a-gray)"/>
  <rect x="30.0" y="300" width="124" height="64" rx="8" fill="#eff6ff" stroke="#93c5fd" stroke-width="1.6"/>
  <text x="92" y="324" text-anchor="middle" class="t-h">spec-explorer</text>
  <text x="92" y="342" text-anchor="middle" class="t-b">探索·一次一问</text>
  <text x="92" y="356" text-anchor="middle" class="t-b" font-size="9.5" fill="#94a3b8"></text>
  <line x1="270" y1="170" x2="270" y2="296" stroke="#94a3b8" stroke-width="1.3" stroke-dasharray="3,3" marker-end="url(#a-gray)"/>
  <rect x="208.0" y="300" width="124" height="64" rx="8" fill="#eff6ff" stroke="#93c5fd" stroke-width="1.6"/>
  <text x="270" y="324" text-anchor="middle" class="t-h">spec-forger</text>
  <text x="270" y="342" text-anchor="middle" class="t-b">规格·4工件+schema</text>
  <text x="270" y="356" text-anchor="middle" class="t-b" font-size="9.5" fill="#94a3b8"></text>
  <line x1="448" y1="170" x2="448" y2="296" stroke="#94a3b8" stroke-width="1.3" stroke-dasharray="3,3" marker-end="url(#a-gray)"/>
  <rect x="386.0" y="300" width="124" height="64" rx="8" fill="#fee2e2" stroke="#fca5a5" stroke-width="1.6"/>
  <text x="448" y="324" text-anchor="middle" class="t-h">bridge-contract</text>
  <text x="448" y="342" text-anchor="middle" class="t-b">桥接·独创</text>
  <text x="448" y="356" text-anchor="middle" class="t-b" font-size="9.5" fill="#94a3b8">独创</text>
  <line x1="626" y1="170" x2="626" y2="296" stroke="#94a3b8" stroke-width="1.3" stroke-dasharray="3,3" marker-end="url(#a-gray)"/>
  <rect x="564.0" y="300" width="124" height="64" rx="8" fill="#eff6ff" stroke="#93c5fd" stroke-width="1.6"/>
  <text x="626" y="324" text-anchor="middle" class="t-h">execution-governor</text>
  <text x="626" y="342" text-anchor="middle" class="t-b">执行·TDD+SDD</text>
  <text x="626" y="356" text-anchor="middle" class="t-b" font-size="9.5" fill="#94a3b8"></text>
  <line x1="804" y1="170" x2="804" y2="296" stroke="#94a3b8" stroke-width="1.3" stroke-dasharray="3,3" marker-end="url(#a-gray)"/>
  <rect x="742.0" y="300" width="124" height="64" rx="8" fill="#eff6ff" stroke="#93c5fd" stroke-width="1.6"/>
  <text x="804" y="324" text-anchor="middle" class="t-h">closure-archivist</text>
  <text x="804" y="342" text-anchor="middle" class="t-b">收口·验证归档</text>
  <text x="804" y="356" text-anchor="middle" class="t-b" font-size="9.5" fill="#94a3b8"></text>
  <line x1="982" y1="170" x2="982" y2="296" stroke="#94a3b8" stroke-width="1.3" stroke-dasharray="3,3" marker-end="url(#a-gray)"/>
  <rect x="920.0" y="300" width="124" height="64" rx="8" fill="#eff6ff" stroke="#93c5fd" stroke-width="1.6"/>
  <text x="982" y="324" text-anchor="middle" class="t-h">spec-syncer</text>
  <text x="982" y="342" text-anchor="middle" class="t-b">同步·←OpenSpec</text>
  <text x="982" y="356" text-anchor="middle" class="t-b" font-size="9.5" fill="#94a3b8"></text>
  <line x1="157.0" y1="330" x2="205.0" y2="330" stroke="#2563eb" stroke-width="1.7" marker-end="url(#a-blue)"/>
  <rect x="123" y="321" width="116" height="17" rx="3" fill="#ffffff" stroke="none"/>
  <text x="181" y="333" text-anchor="middle" class="t-art">proposal</text>
  <line x1="335.0" y1="330" x2="383.0" y2="330" stroke="#2563eb" stroke-width="1.7" marker-end="url(#a-blue)"/>
  <rect x="301" y="321" width="116" height="17" rx="3" fill="#ffffff" stroke="none"/>
  <text x="359" y="333" text-anchor="middle" class="t-art">4 工件 ✓schema</text>
  <line x1="513.0" y1="330" x2="561.0" y2="330" stroke="#2563eb" stroke-width="1.7" marker-end="url(#a-blue)"/>
  <rect x="479" y="321" width="116" height="17" rx="3" fill="#ffffff" stroke="none"/>
  <text x="537" y="333" text-anchor="middle" class="t-art">execution-contract</text>
  <line x1="691.0" y1="330" x2="739.0" y2="330" stroke="#2563eb" stroke-width="1.7" marker-end="url(#a-blue)"/>
  <rect x="657" y="321" width="116" height="17" rx="3" fill="#ffffff" stroke="none"/>
  <text x="715" y="333" text-anchor="middle" class="t-art">代码+验证证据</text>
  <line x1="869.0" y1="330" x2="917.0" y2="330" stroke="#2563eb" stroke-width="1.7" marker-end="url(#a-blue)"/>
  <rect x="835" y="321" width="116" height="17" rx="3" fill="#ffffff" stroke="none"/>
  <text x="893" y="333" text-anchor="middle" class="t-art">delta spec</text>
  <rect x="374" y="450" width="148" height="56" rx="8" fill="#dcfce7" stroke="#86efac" stroke-width="1.5"/>
  <text x="448" y="472" text-anchor="middle" class="t-h">systematic-debugger</text>
  <text x="448" y="488" text-anchor="middle" class="t-b">调试（←Superpowers）</text>
  <text x="448" y="500" text-anchor="middle" class="t-b">4 阶段根因 · 3+失败质疑架构</text>
  <rect x="730" y="450" width="148" height="56" rx="8" fill="#dcfce7" stroke="#86efac" stroke-width="1.5"/>
  <text x="804" y="472" text-anchor="middle" class="t-h">code-reviewer</text>
  <text x="804" y="488" text-anchor="middle" class="t-b">审查（←Superpowers）</text>
  <text x="804" y="500" text-anchor="middle" class="t-b">三级分级 · 禁表演式同意</text>
  <path d="M 588 364 L 470 450" fill="none" stroke="#16a34a" stroke-width="1.6" marker-end="url(#a-green)"/>
  <path d="M 470 470 L 590 372" fill="none" stroke="#16a34a" stroke-width="1.6" marker-end="url(#a-green)" stroke-dasharray="4,3"/>
  <text x="498" y="418" class="t-edge" fill="#15803d">遇bug</text>
  <text x="478" y="438" class="t-edge" fill="#15803d">修复回</text>
  <path d="M 664 364 L 780 450" fill="none" stroke="#16a34a" stroke-width="1.6" marker-end="url(#a-green)"/>
  <text x="734" y="418" class="t-edge" fill="#15803d">Review Gate</text>
  <rect x="40" y="540" width="1020" height="46" rx="8" fill="#f9fafb" stroke="#e5e7eb"/>
  <text x="56" y="560" class="t-note" font-weight="600">决策点：</text>
  <text x="110" y="560" class="t-note">DP-3 用户批准（approved-for-build）· DP-4/5/7 路由确认（orchestrator 输出附决策点编号）</text>
  <text x="56" y="578" class="t-note" font-weight="600" fill="#6b21a8">铁律：</text>
  <text x="110" y="578" class="t-note">NO PRODUCTION CODE WITHOUT FAILING TEST ｜ NO FIXES WITHOUT ROOT CAUSE ｜ NO COMPLETION CLAIMS WITHOUT FRESH VERIFICATION EVIDENCE</text>
</svg>